<svg height="19.514" viewBox="0 0 31.81 19.514" width="31.81" xmlns="http://www.w3.org/2000/svg"><path d="m31.8 45.486c-.336-2.563-3.406-6.123-3.406-6.123a2.275 2.275 0 0 0 -2.869-1.375l-1.381.372a1.59 1.59 0 0 0 -.71 2.563 1.512 1.512 0 0 0 1.247 0c.067-.061.016-.351.016-.351 1.45.079 1.556-.761 1.556-.761l.493-.1c.494-.27.6.876.6.876-.336 3.248 1.07 4.437 1.07 4.437a.808.808 0 0 1 -.912.52c-2.248-1.168-3.917 1.039-3.917 1.039-1.271-1.083-3.894.836-3.894.836-1.47.291-1.557-1.478-1.557-1.478s-.068-1.127-.116-1.23c-.069-.176.312-.087.312-.087 1.293-2.353 0-2.038 0-2.038.313-4.059-3.245-3.207-3.245-3.207-2.737.75-1.734 3.476-1.734 3.476-.6-.147-.313.749-.313.749.155 1.375.647 1.063.647 1.063a5.864 5.864 0 0 0 .334 1.145l.042 1.1c-.309 1.834-2.245.313-2.245.313-1.136-1.6-3.982-.706-3.982-.706a2.889 2.889 0 0 0 -3.787-.939 13.731 13.731 0 0 0 -.042-3.248 12.735 12.735 0 0 0 .865-2.226c.247.334 1.361.393 1.361.393a1.028 1.028 0 0 0 .443.706c.757.314.443-2.164.443-2.164.2-.787-1.067-.976-1.067-.976-2.206-.607-2.717.787-2.717.787l-.576 1.252a27.771 27.771 0 0 0 -2.359 3.962c-.883 2.434-.033 2.875-.033 2.875l1.6 1.244c2.716 2.63 4.358 2.252 4.358 2.252 2.185-.042 2 1.373 2 1.373a10.121 10.121 0 0 0 1.6 4.412c.111.378.19.777.269 1.172h10.361a6.814 6.814 0 0 1 .569-1.075 25.549 25.549 0 0 0 2.433-3.781c.836-2.025 1.233-1.978 1.233-1.978a6.13 6.13 0 0 0 4.63-2.16 7.61 7.61 0 0 1 1.78-1.711 1.212 1.212 0 0 0 .6-1.203z" fill="#fff" opacity=".5" transform="translate(0 -37.88)"/></svg>